<svg id="visual" viewBox="0 0 1920 1080" width="1920" height="1080" xmlns="http://www.w3.org/2000/svg" xmlns:xlink="http://www.w3.org/1999/xlink" version="1.1"><rect x="0" y="0" width="1920" height="1080" fill="#d5dade"></rect><defs><linearGradient id="grad1_0" x1="43.8%" y1="100%" x2="100%" y2="0%"><stop offset="14.444444444444446%" stop-color="#329ad6" stop-opacity="1"></stop><stop offset="85.55555555555554%" stop-color="#329ad6" stop-opacity="1"></stop></linearGradient></defs><defs><linearGradient id="grad1_1" x1="43.8%" y1="100%" x2="100%" y2="0%"><stop offset="14.444444444444446%" stop-color="#329ad6" stop-opacity="1"></stop><stop offset="85.55555555555554%" stop-color="#69aad8" stop-opacity="1"></stop></linearGradient></defs><defs><linearGradient id="grad1_2" x1="43.8%" y1="100%" x2="100%" y2="0%"><stop offset="14.444444444444446%" stop-color="#90bada" stop-opacity="1"></stop><stop offset="85.55555555555554%" stop-color="#69aad8" stop-opacity="1"></stop></linearGradient></defs><defs><linearGradient id="grad1_3" x1="43.8%" y1="100%" x2="100%" y2="0%"><stop offset="14.444444444444446%" stop-color="#90bada" stop-opacity="1"></stop><stop offset="85.55555555555554%" stop-color="#b3cadc" stop-opacity="1"></stop></linearGradient></defs><defs><linearGradient id="grad1_4" x1="43.8%" y1="100%" x2="100%" y2="0%"><stop offset="14.444444444444446%" stop-color="#d5dade" stop-opacity="1"></stop><stop offset="85.55555555555554%" stop-color="#b3cadc" stop-opacity="1"></stop></linearGradient></defs><defs><linearGradient id="grad2_0" x1="0%" y1="100%" x2="56.3%" y2="0%"><stop offset="14.444444444444446%" stop-color="#329ad6" stop-opacity="1"></stop><stop offset="85.55555555555554%" stop-color="#329ad6" stop-opacity="1"></stop></linearGradient></defs><defs><linearGradient id="grad2_1" x1="0%" y1="100%" x2="56.3%" y2="0%"><stop offset="14.444444444444446%" stop-color="#69aad8" stop-opacity="1"></stop><stop offset="85.55555555555554%" stop-color="#329ad6" stop-opacity="1"></stop></linearGradient></defs><defs><linearGradient id="grad2_2" x1="0%" y1="100%" x2="56.3%" y2="0%"><stop offset="14.444444444444446%" stop-color="#69aad8" stop-opacity="1"></stop><stop offset="85.55555555555554%" stop-color="#90bada" stop-opacity="1"></stop></linearGradient></defs><defs><linearGradient id="grad2_3" x1="0%" y1="100%" x2="56.3%" y2="0%"><stop offset="14.444444444444446%" stop-color="#b3cadc" stop-opacity="1"></stop><stop offset="85.55555555555554%" stop-color="#90bada" stop-opacity="1"></stop></linearGradient></defs><defs><linearGradient id="grad2_4" x1="0%" y1="100%" x2="56.3%" y2="0%"><stop offset="14.444444444444446%" stop-color="#b3cadc" stop-opacity="1"></stop><stop offset="85.55555555555554%" stop-color="#d5dade" stop-opacity="1"></stop></linearGradient></defs><g transform="translate(1920, 1080)"><path d="M-756 0C-700.4 -43.9 -644.7 -87.8 -642.5 -146.6C-640.2 -205.5 -691.3 -279.4 -681.1 -328C-670.9 -376.6 -599.4 -399.9 -559.8 -446.4C-520.1 -492.9 -512.4 -562.5 -469.5 -588.7C-426.6 -614.9 -348.7 -597.8 -292 -606.4C-235.3 -614.9 -200 -649.3 -154.9 -678.5C-109.8 -707.8 -54.9 -731.9 0 -756L0 0Z" fill="#c4d2dd"></path><path d="M-604.8 0C-560.3 -35.1 -515.8 -70.2 -514 -117.3C-512.2 -164.4 -553.1 -223.5 -544.9 -262.4C-536.7 -301.3 -479.5 -320 -447.8 -357.1C-416.1 -394.3 -409.9 -450 -375.6 -471C-341.3 -491.9 -278.9 -478.2 -233.6 -485.1C-188.3 -492 -160 -519.5 -123.9 -542.8C-87.8 -566.2 -43.9 -585.5 0 -604.8L0 0Z" fill="#a2c2db"></path><path d="M-453.6 0C-420.2 -26.3 -386.8 -52.7 -385.5 -88C-384.1 -123.3 -414.8 -167.6 -408.7 -196.8C-402.6 -226 -359.7 -240 -335.9 -267.9C-312.1 -295.7 -307.4 -337.5 -281.7 -353.2C-256 -369 -209.2 -358.7 -175.2 -363.8C-141.2 -369 -120 -389.6 -92.9 -407.1C-65.9 -424.7 -32.9 -439.1 0 -453.6L0 0Z" fill="#7eb2d9"></path><path d="M-302.4 0C-280.1 -17.6 -257.9 -35.1 -257 -58.7C-256.1 -82.2 -276.5 -111.8 -272.5 -131.2C-268.4 -150.6 -239.8 -160 -223.9 -178.6C-208.1 -197.2 -204.9 -225 -187.8 -235.5C-170.6 -246 -139.5 -239.1 -116.8 -242.5C-94.1 -246 -80 -259.7 -61.9 -271.4C-43.9 -283.1 -22 -292.8 0 -302.4L0 0Z" fill="#52a2d7"></path><path d="M-151.2 0C-140.1 -8.8 -128.9 -17.6 -128.5 -29.3C-128 -41.1 -138.3 -55.9 -136.2 -65.6C-134.2 -75.3 -119.9 -80 -112 -89.3C-104 -98.6 -102.5 -112.5 -93.9 -117.7C-85.3 -123 -69.7 -119.6 -58.4 -121.3C-47.1 -123 -40 -129.9 -31 -135.7C-22 -141.6 -11 -146.4 0 -151.2L0 0Z" fill="#329ad6"></path></g><g transform="translate(0, 0)"><path d="M756 0C751.9 57.9 747.8 115.7 720.5 164.4C693.1 213.1 642.4 252.7 607.3 292.4C572.1 332.2 552.4 372.2 536.3 427.7C520.3 483.3 507.9 554.4 467 585.6C426.1 616.8 356.6 608 304.2 631.6C251.7 655.1 216.1 710.9 168.2 737C120.4 763.2 60.2 759.6 0 756L0 0Z" fill="#c4d2dd"></path><path d="M604.8 0C601.5 46.3 598.3 92.6 576.4 131.6C554.5 170.5 513.9 202.1 485.8 234C457.7 265.8 441.9 297.7 429.1 342.2C416.2 386.6 406.3 443.5 373.6 468.5C340.9 493.4 285.3 486.4 243.3 505.3C201.3 524.1 172.9 568.7 134.6 589.6C96.3 610.5 48.1 607.7 0 604.8L0 0Z" fill="#a2c2db"></path><path d="M453.6 0C451.2 34.7 448.7 69.4 432.3 98.7C415.9 127.9 385.5 151.6 364.4 175.5C343.2 199.3 331.4 223.3 321.8 256.6C312.2 290 304.7 332.6 280.2 351.4C255.6 370.1 214 364.8 182.5 378.9C151 393.1 129.7 426.6 100.9 442.2C72.2 457.9 36.1 455.7 0 453.6L0 0Z" fill="#7eb2d9"></path><path d="M302.4 0C300.8 23.1 299.1 46.3 288.2 65.8C277.2 85.3 257 101.1 242.9 117C228.8 132.9 221 148.9 214.5 171.1C208.1 193.3 203.2 221.8 186.8 234.2C170.4 246.7 142.7 243.2 121.7 252.6C100.7 262 86.4 284.4 67.3 294.8C48.1 305.3 24.1 303.8 0 302.4L0 0Z" fill="#52a2d7"></path><path d="M151.2 0C150.4 11.6 149.6 23.1 144.1 32.9C138.6 42.6 128.5 50.5 121.5 58.5C114.4 66.4 110.5 74.4 107.3 85.5C104.1 96.7 101.6 110.9 93.4 117.1C85.2 123.4 71.3 121.6 60.8 126.3C50.3 131 43.2 142.2 33.6 147.4C24.1 152.6 12 151.9 0 151.2L0 0Z" fill="#329ad6"></path></g></svg>