<?xml version="1.0" encoding="UTF-8"?>
<svg id="a" data-name="Vrstva 1" xmlns="http://www.w3.org/2000/svg" width="975" height="250" viewBox="0 0 975 250">
  <polygon points="387.5 0 481.25 250 443.75 250 365.62 37.5 287.5 250 250 250 343.75 0 387.5 0" style="fill: #da1b21;"/>
  <polygon points="556.25 250 462.5 0 500 0 578.13 212.5 656.25 0 693.75 0 600 250 556.25 250" style="fill: #2b4e9d;"/>
  <path d="M118.58,250c-23.41,0-44.05-5.18-61.9-15.54-17.62-10.59-31.53-25.21-41.73-43.85C4.98,171.73,0,149.86,0,125s4.98-46.27,14.95-64.92c10.2-18.88,24.11-33.61,41.73-44.2C74.53,5.29,95.16,0,118.58,0s44.74,5.29,62.59,15.88c17.85,10.59,31.64,25.32,41.38,44.2,9.97,18.65,14.95,40.29,14.95,64.92s-4.98,46.73-14.95,65.61c-9.74,18.65-23.53,33.26-41.38,43.85-17.85,10.36-38.71,15.54-62.59,15.54ZM118.92,219.27c16.69,0,31.3-3.8,43.81-11.39,12.52-7.6,22.14-18.42,28.86-32.46,6.95-14.04,10.43-30.85,10.43-50.41s-3.48-36.37-10.43-50.41c-6.72-14.04-16.34-24.75-28.86-32.11-12.52-7.6-27.12-11.39-43.81-11.39s-31.3,3.8-43.81,11.39c-12.52,7.37-22.25,18.07-29.21,32.11-6.95,14.04-10.43,30.85-10.43,50.41s3.48,36.37,10.43,50.41c6.95,14.04,16.69,24.86,29.21,32.46,12.52,7.6,27.12,11.39,43.81,11.39Z" style="fill: #da1b21;"/>
  <polygon points="725 250 725 0 768.75 0 850 150 931.25 0 975 0 975 250 937.5 250 937.5 68.75 868.75 193.75 831.25 193.75 762.5 68.75 762.5 250 725 250" style="fill: #2b4e9d;"/>
</svg>